<svg width="18" height="18" viewBox="0 0 18 18" fill="none" xmlns="http://www.w3.org/2000/svg">
<path d="M2.5 17H2.83333C3.66176 17 4.33333 16.3284 4.33333 15.5V8.35156C4.33333 7.52314 3.66176 6.85156 2.83333 6.85156H2.5C1.67157 6.85156 1 7.52314 1 8.35156V15.5C1 16.3284 1.67157 17 2.5 17Z" stroke="#667085" stroke-width="1.5" stroke-linecap="round" stroke-linejoin="round"/>
<path d="M8.83301 16.9991H9.16634C9.99477 16.9991 10.6663 16.3275 10.6663 15.4991V2.5C10.6663 1.67157 9.99477 1 9.16634 1H8.83301C8.00458 1 7.33301 1.67157 7.33301 2.5V15.4991C7.33301 16.3275 8.00458 16.9991 8.83301 16.9991Z" stroke="#667085" stroke-width="1.5" stroke-linecap="round" stroke-linejoin="round"/>
<path d="M15.166 17H15.4993C16.3278 17 16.9993 16.3284 16.9993 15.5V11.9218C16.9993 11.0934 16.3278 10.4218 15.4993 10.4218H15.166C14.3376 10.4218 13.666 11.0934 13.666 11.9218V15.5C13.666 16.3284 14.3376 17 15.166 17Z" stroke="#667085" stroke-width="1.5" stroke-linecap="round" stroke-linejoin="round"/>
</svg>
