<svg width="28" height="28" viewBox="0 0 28 28" fill="none" xmlns="http://www.w3.org/2000/svg">
<path d="M14.0001 24.584V12.8669M14.0001 12.8669C13.7321 12.8669 13.4642 12.8053 13.218 12.6822M14.0001 12.8669C14.2684 12.867 14.5367 12.8054 14.7832 12.6822M14.7832 12.6822C14.2905 12.9285 13.7106 12.9285 13.218 12.6822M14.7832 12.6822L23.5914 8.2782M13.218 12.6822L4.40973 8.2782M23.5914 8.2782C23.4244 8.0173 23.1881 7.80045 22.9002 7.65654L14.7832 3.59813C14.2905 3.35181 13.7106 3.35181 13.218 3.59813L5.10094 7.65654C4.81312 7.80045 4.57676 8.0173 4.40973 8.2782M23.5914 8.2782C23.7685 8.55473 23.8676 8.88073 23.8676 9.2218V18.7756C23.8676 19.4384 23.4931 20.0444 22.9002 20.3408L14.7832 24.3992C14.2905 24.6456 13.7106 24.6456 13.218 24.3992L5.10094 20.3408C4.50806 20.0444 4.13354 19.4384 4.13354 18.7756V9.2218C4.13354 8.88073 4.2327 8.55473 4.40973 8.2782" stroke="#F97066" stroke-width="1.77734" stroke-linecap="round" stroke-linejoin="round"/>
</svg>
