<svg width="28" height="28" viewBox="0 0 28 28" fill="none" xmlns="http://www.w3.org/2000/svg">
<path d="M13.9993 24.5841V12.867M13.9993 12.867C13.7314 12.8669 13.4634 12.8053 13.2173 12.6823M13.9993 12.867C14.2677 12.8671 14.536 12.8055 14.7825 12.6823M14.7825 12.6823C14.2898 12.9286 13.7099 12.9286 13.2173 12.6823M14.7825 12.6823L23.5907 8.27826M13.2173 12.6823L4.409 8.27826M23.5907 8.27826C23.4237 8.01736 23.1873 7.80051 22.8995 7.6566L14.7825 3.5982C14.2898 3.35187 13.7099 3.35187 13.2173 3.5982L5.10021 7.6566C4.81239 7.80051 4.57603 8.01736 4.409 8.27826M23.5907 8.27826C23.7677 8.55479 23.8669 8.88079 23.8669 9.22186V18.7756C23.8669 19.4385 23.4924 20.0445 22.8995 20.3409L14.7825 24.3993C14.2898 24.6456 13.7099 24.6456 13.2173 24.3993L5.10021 20.3409C4.50732 20.0445 4.13281 19.4385 4.13281 18.7756V9.22186C4.13281 8.88079 4.23196 8.55479 4.409 8.27826" stroke="#F97066" stroke-width="1.77734" stroke-linecap="round" stroke-linejoin="round"/>
</svg>
