<svg width="21" height="20" viewBox="0 0 21 20" fill="none" xmlns="http://www.w3.org/2000/svg">
<path d="M2.96487 10.7924C2.73306 10.2898 2.73306 9.71011 2.96487 9.20752C4.28084 6.3543 7.15966 4.37488 10.4993 4.37488C13.8389 4.37488 16.7178 6.3543 18.0337 9.20752C18.2655 9.71011 18.2655 10.2898 18.0337 10.7924C16.7178 13.6456 13.8389 15.6251 10.4993 15.6251C7.15966 15.6251 4.28084 13.6456 2.96487 10.7924Z" stroke="#FDB022" stroke-width="1.5" stroke-linecap="round" stroke-linejoin="round"/>
<path d="M13.5202 9.99988C13.5202 11.6682 12.1677 13.0207 10.4993 13.0207C8.83099 13.0207 7.47852 11.6682 7.47852 9.99988C7.47852 8.33152 8.83099 6.97904 10.4993 6.97904C12.1677 6.97904 13.5202 8.33152 13.5202 9.99988Z" stroke="#FDB022" stroke-width="1.5" stroke-linecap="round" stroke-linejoin="round"/>
</svg>
