<svg width="18" height="16" viewBox="0 0 18 16" fill="none" xmlns="http://www.w3.org/2000/svg">
<path d="M13.6547 3.90417C13.6547 2.48436 12.5037 1.33334 11.0839 1.33334C9.66403 1.33334 8.51304 2.48436 8.51302 3.90418M13.6547 3.90417C13.6547 5.32401 12.5037 6.47501 11.0839 6.47501C9.66402 6.47501 8.51302 5.32401 8.51302 3.90418M13.6547 3.90417L16.7096 3.90414M8.51302 3.90418L1.29297 3.90414M4.34792 12.0958C4.34792 10.676 5.49892 9.52501 6.91875 9.52501C8.33858 9.52501 9.48958 10.676 9.48958 12.0958M4.34792 12.0958C4.34792 13.5157 5.49892 14.6667 6.91875 14.6667C8.33858 14.6667 9.48958 13.5157 9.48958 12.0958M4.34792 12.0958L1.29297 12.0958M9.48958 12.0958L16.7096 12.0958" stroke="#344054" stroke-width="1.5" stroke-linecap="round" stroke-linejoin="round"/>
</svg>
