<svg width="20" height="20" viewBox="0 0 20 20" fill="none" xmlns="http://www.w3.org/2000/svg">
<path d="M13.334 16.6666V12.9166C13.334 12.2262 12.7743 11.6666 12.084 11.6666L7.91732 11.6666C7.22696 11.6666 6.66732 12.2262 6.66732 12.9166L6.66733 16.6666M10.0007 5.83325H6.66732M15.4172 16.6666H4.58398C3.89363 16.6666 3.33398 16.1069 3.33398 15.4166V4.58325C3.33398 3.8929 3.89363 3.33325 4.58398 3.33325H12.8181C13.1493 3.33325 13.4669 3.46468 13.7013 3.69869L16.3004 6.29384C16.5353 6.52832 16.6672 6.84655 16.6672 7.17841L16.6672 15.4166C16.6672 16.1069 16.1076 16.6666 15.4172 16.6666Z" stroke="white" stroke-width="1.5" stroke-linecap="round" stroke-linejoin="round"/>
</svg>
