<svg width="18" height="16" viewBox="0 0 18 16" fill="none" xmlns="http://www.w3.org/2000/svg">
<path d="M4.4952 9.62126V8.87126C4.08099 8.87126 3.7452 9.20704 3.7452 9.62126H4.4952ZM13.5037 9.62126H14.2537C14.2537 9.20704 13.9179 8.87126 13.5037 8.87126V9.62126ZM12.1595 1.68594L11.6375 2.22447V2.22447L12.1595 1.68594ZM13.1238 2.62062L12.6018 3.15916V3.15916L13.1238 2.62062ZM4.4952 9.62126V10.3713H13.5037V9.62126V8.87126H4.4952V9.62126ZM12.2537 14.666V13.916H5.7452V14.666V15.416H12.2537V14.666ZM5.7452 14.666V13.916C5.46906 13.916 5.2452 13.6921 5.2452 13.416H4.4952H3.7452C3.7452 14.5206 4.64063 15.416 5.7452 15.416V14.666ZM13.5037 13.416H12.7537C12.7537 13.6921 12.5298 13.916 12.2537 13.916V14.666V15.416C13.3582 15.416 14.2537 14.5206 14.2537 13.416H13.5037ZM16.4992 6.36605H15.7492V9.63146H16.4992H17.2492V6.36605H16.4992ZM1.5 9.63146H2.25V6.36605H1.5H0.75V9.63146H1.5ZM2.75 10.8815V10.1315C2.47386 10.1315 2.25 9.9076 2.25 9.63146H1.5H0.75C0.75 10.736 1.64543 11.6315 2.75 11.6315V10.8815ZM16.4992 9.63146H15.7492C15.7492 9.9076 15.5254 10.1315 15.2492 10.1315V10.8815V11.6315C16.3538 11.6315 17.2492 10.736 17.2492 9.63146H16.4992ZM15.2492 5.11605V5.86605C15.5254 5.86605 15.7492 6.0899 15.7492 6.36605H16.4992H17.2492C17.2492 5.26148 16.3538 4.36605 15.2492 4.36605V5.11605ZM2.75 5.11605V4.36605C1.64543 4.36605 0.75 5.26148 0.75 6.36605H1.5H2.25C2.25 6.08991 2.47386 5.86605 2.75 5.86605V5.11605ZM5.74537 1.3335V2.0835H11.2895V1.3335V0.583496H5.74537V1.3335ZM12.1595 1.68594L11.6375 2.22447L12.6018 3.15916L13.1238 2.62062L13.6458 2.08209L12.6815 1.14741L12.1595 1.68594ZM13.5038 3.51818H14.2538C14.2538 2.97693 14.0345 2.4588 13.6458 2.08209L13.1238 2.62062L12.6018 3.15916C12.699 3.25333 12.7538 3.38287 12.7538 3.51818H13.5038ZM11.2895 1.3335V2.0835C11.4194 2.0835 11.5443 2.13406 11.6375 2.22447L12.1595 1.68594L12.6815 1.14741C12.3084 0.785743 11.8092 0.583496 11.2895 0.583496V1.3335ZM4.49537 2.5835H5.24537C5.24537 2.30735 5.46923 2.0835 5.74537 2.0835V1.3335V0.583496C4.6408 0.583496 3.74537 1.47893 3.74537 2.5835H4.49537ZM4.49537 5.11605V5.86605H13.5038V5.11605V4.36605H4.49537V5.11605ZM13.5038 5.11605H14.2538V3.51818H13.5038H12.7538V5.11605H13.5038ZM4.49537 2.5835H3.74537V5.11605H4.49537H5.24537V2.5835H4.49537ZM2.75 5.11605V5.86605H4.49537V5.11605V4.36605H2.75V5.11605ZM13.5038 5.11605V5.86605H15.2492V5.11605V4.36605H13.5038V5.11605ZM4.4952 9.62126H3.7452V10.8815H4.4952H5.2452V9.62126H4.4952ZM13.5037 10.8815H14.2537V9.62126H13.5037H12.7537V10.8815H13.5037ZM13.5037 10.8815H12.7537V13.416H13.5037H14.2537V10.8815H13.5037ZM15.2492 10.8815V10.1315H13.5037V10.8815V11.6315H15.2492V10.8815ZM4.4952 10.8815V10.1315H2.75V10.8815V11.6315H4.4952V10.8815ZM4.4952 13.416H5.2452V10.8815H4.4952H3.7452V13.416H4.4952Z" fill="white"/>
</svg>
