<svg width="26" height="22" viewBox="0 0 26 22" fill="none" xmlns="http://www.w3.org/2000/svg">
<path d="M22.8615 8.35819C22.2799 6.1877 20.9984 4.26977 19.2156 2.90185C17.4329 1.53394 15.2487 0.792481 13.0016 0.79248C10.7546 0.79248 8.57032 1.53394 6.78762 2.90185C5.00491 4.26977 3.72339 6.1877 3.14181 8.35819C3.02322 8.80076 2.9476 9.11114 2.90235 9.32483M3.13865 13.6412C3.72022 15.8116 5.00174 17.7296 6.78445 19.0975C8.56715 20.4654 10.7514 21.2069 12.9985 21.2069C15.2455 21.2069 17.4298 20.4654 19.2125 19.0975C20.9952 17.7296 22.2767 15.8116 22.8583 13.6412C22.9793 13.1897 23.056 12.8758 23.1017 12.6618M6.60617 7.49577L3.01201 9.51961L2.90235 9.32483M0.988281 5.92507L2.90235 9.32483M19.4053 14.5041L22.9995 12.4802L23.1017 12.6618M25.0232 16.0748L23.1017 12.6618" stroke="#53B1FD" stroke-width="1.5" stroke-linecap="round" stroke-linejoin="round"/>
</svg>
